<svg width="349" height="277" viewBox="0 0 349 277" xmlns="http://www.w3.org/2000/svg"><g fill="none" fill-rule="evenodd"><path d="M193.4 28.9c-3.2-4.8-9.1-6.8-9.1-6.8 5.6-1.8 22.3.9 22.3.9-.4-2.3-1.2-4.4-4.3-6.6 43.1 3.1 59.7 47.2 59.7 47.2 3.2 5.7 4.4 12.4 9.8 17.1 3.9 3.1 8.8 6.2 10.2 9.9 1.5 3.9 2.4 9.8-.6 14.6-3 4.8-11.3 8.4-17.6 10.1-6.3 1.7-9.4 13.6-20.8 6.2 0 0 16.5 27.5 45.3 7.8.9 3.8 1 10.9-.9 16.1 2.7-1.7 5-4.2 6.8-7.4 2.1 4.8.2 16.2-1.9 20.9 3.4-.4 6.5-2.3 9.2-5.4-2.8 12.6-12.4 30-21.2 39 6.3 1.8 31.4 34.7 62.9 50.2 2.1 1.2 5.9 3.5 4.9 6.3-2.4 6-10.1 3.9-13.3 9.5-2.9 3.6-.4 10.8-6 12-5 .8-12.3-4.3-15.7 2.8 0 0-4.1 5.8-9.2.9-3.2-3.1-3.9-7.2-6-12.5-2.2-5.3-10-23.7-13.4-31.2-2.6 3.6-2 8-2.9 12-2.6 9-8.3 17.5-16.7 22.9.5 3.3-.6 7.4-4 8.9-4.2 1.8-9.8-2.3-14.2-4.4-27.1 3.8-47.7-12.1-66.7-30.3 0 0-100-28.6-117.4-35.7-6-2.6-12.3-5.7-15.2-12.4-1.1-5.9 1.4-11 6.3-14.1 5.3-3.8 12.3-3.2 18.4-4.8 1-.8 2.5-.9 2.9-2.3-.2-1.8-.7-3.5-1.6-5.1-6.6 3.9-14.6 5.2-22 5.1-2.1 7.2-10.6 17.6-17.8 20.6 1.5-2.2 1.6-6.2.7-7.2-4.6 3.6-9.7 6.7-15.4 7 1.6-2 2.7-4.6 3.1-7.3-4.3 1.9-9 2.8-13 2.7 5.2-8 1.9-19.9-1.3-32-2-7.5-.7-12.3.4-18.2-1.4-7-6.8-11.3-7.7-18.5C-2.1 102.8 15 97.9 20.7 87c3-5.5 9-11.8 14.9-11.9 5.9-.1 14 5.2 21.5 7 3.6 1.1 6.4 3.7 8.8 6.6 2.1-2.4 4.5-5 7.1-6.9-2.6-.2-5.4 1-7.2 3.3-3.5-6.3-3.8-13.5-2.2-20.3-3.4 1-7 3.4-8.8 6.9-2.3-9.9-.4-21.4 5.9-29.3-4-.2-7.8 1-11.4 2.5C52.5 35.3 65.2 18 79.6 9.2c19.2-11.8 59.2-14.3 79.5 9.9 7.7 2 16.4 6.2 17.9 14.9 1.1 1.5 2.7 2.6 4.3 3.6 1.5-.4 3.1-.5 4.5-1.2-4.1-3.1-6.2-4.1-6.2-4.1 5-3.1 13.8-3.4 13.8-3.4z" fill="#FFF"/><path d="M247.8 166.1s12.3-8.4 12.8-14.5c0 0 2.2 8.9-1.1 17.3 0 0 11.6-7.4 22.3-28.1 0 0 3.4 4.1 3.9 8.6.6 4.5 5 8.9 5 8.9l3.3 5s-11.2 39-49.1 44.6L231 180s-3.3-7.8-15.1-9.5l2.2 6.1s-15.6 0-20.1-4.5c0 0 .6-8.4-6.1-13.9 0 0 15.1-4.5 25.6 2.2 0 0-2.2-19.5-29.6-35.1.2.1 27.5-1.1 59.9 40.8zM220.5 48.2s12.3 8.4 15.1 20.6c0 0 2.2-3.3.6-8.4 0 0 10.6 8.9 8.9 26.2l5.6-5s3.9 2.8 2.8 5c0 0 6.1-7.2 12.3-6.1 0 0 17.3 3.9 12.8 21.2 0 0-4.5 6.1-11.7 8.4 0 0-11.7 7.8-13.9 10-2.2 2.2-17.3-8.4-17.3-8.4l-10.6-19.5c-.2.1 16.5-15.5-4.6-44z" fill="#EEE1C6"/><path d="M207.4 103.2c-17-11.6-19.4-14.3-27.8-8.7-17.7 11.8-30.2 23.2-30.2 23.2-12.3-2.8-21.9 2.7-21.6 9.9-4 3.5-11.6 4.7-25.6-5.6-18.9-14-22.9-5.4-22.9-5.4l3.6 20.8s39.4 13.1 48.9 13.7c7 .4 10-12.2 10-12.2 1.7-3.3 12.7-5.4 12.7-5.4-.6-10.6 13.9-19 13.9-19 26.1-14.7 57.7 13 66.4 21.1-7.9-10.8-16.1-24.7-27.4-32.4zM19.1 144s-2.8 8.9 1.7 17.3 1.1 15.6 1.1 15.6l3.9 5.6 8.9-6.1 6.7 5 8.8-15.7s15.9-2.3 21.8-7.8c0 0-3.3-18.4 10.6-19.5l-5.4-10.2s-7.5 8.4-17.4 20.8c-3.7 4.6-9.3 9.1-16 8.7-5.6-.3-14.1-2.6-16.7-10.8 0 0-1.9 5.9-.7 8.7-.1.1-7.9-8.3-7.3-11.6zM50.4 99.7s-3.6 8.6-14.9 6.8c0 0 9.2 6.3 9.2 9.6 0 0 17.4-8.1 5.7-16.4zM47.6 95.1C58.2 97 61 92 62.8 90.7c0 0 4.4 8.6-3.9 13 0 0-4.5-5.1-11.3-8.6zM32.2 106c1.1 8.9-16.9 13.8-16.9 13.8S27 138.5 32.5 139l5.6-3.3s4.5-14.3 5.6-16.9c-2.9-7.6-11.5-12.8-11.5-12.8zM84.9 87.3c1.7-.5 3.6-3.2 5.3-6.5 0 0 4.1-7.2 16.4-10.5 0 0-8.3-6.4-7.6-15.7 0 0-.1-8.1 9.1-12.6 0 0 3-.5 10.1 1.2 0 0 14.8 11.9 19.2 13.8 4.5 1.9 9.2 1.4 12.6.3 3.3-1.1 4.8-4.3 4.5-10.7 2.6 4.5 1.4 5.9 5.1 7.8 0 0 2.5-1.3 2.5-8.4 0-7.1 1.9-18.4 9-15.8 7.1 2.6 1.2-2.9-1.2-4.7-2.5-1.7-9.2-4.6-13.6-4.6 0 0-16.4-22-53.5-15.5 0 0 27-2 31.4 15.3 0 0-11.7-5-20.1-2.2 0 0 9.5 5 8.9 8.9 0 0-5.3 2.8-15.1-.6-12.8-4.5-26.2 1.1-33.5 10.6 0 0 2.8-.6 5-1.1 0 0-11.2 13.4 6.1 27.3 0 0-11.3 3.7-13.2 12.1.2 0 8.2 9 12.6 11.6z" fill="#EEE1C6"/><path d="M193.4 28.9c-3.2-4.8-9.1-6.8-9.1-6.8 5.6-1.8 22.3.9 22.3.9-.4-2.3-1.2-4.4-4.3-6.6 43.1 3.1 59.7 47.2 59.7 47.2 3.2 5.7 4.4 12.4 9.8 17.1 3.9 3.1 8.8 6.2 10.2 9.9 1.5 3.9 2.4 9.8-.6 14.6-3 4.8-11.3 8.4-17.6 10.1-6.3 1.7-9.4 13.6-20.8 6.2 0 0 16.5 27.5 45.3 7.8.9 3.8 1 10.9-.9 16.1 2.7-1.7 5-4.2 6.8-7.4 2.1 4.8.2 16.2-1.9 20.9 3.4-.4 6.5-2.3 9.2-5.4-2.8 12.6-12.4 30-21.2 39 6.3 1.8 31.4 34.7 62.9 50.2 2.1 1.2 5.9 3.5 4.9 6.3-2.4 6-10.1 3.9-13.3 9.5-2.9 3.6-.4 10.8-6 12-5 .8-12.3-4.3-15.7 2.8 0 0-4.1 5.8-9.2.9-3.2-3.1-3.9-7.2-6-12.5-2.2-5.3-10-23.7-13.4-31.2-2.6 3.6-2 8-2.9 12-2.6 9-8.3 17.5-16.7 22.9.5 3.3-.6 7.4-4 8.9-4.2 1.8-9.8-2.3-14.2-4.4-27.1 3.8-47.7-12.1-66.7-30.3 0 0-100-28.6-117.4-35.7-6-2.6-12.3-5.7-15.2-12.4-1.1-5.9 1.4-11 6.3-14.1 5.3-3.8 12.3-3.2 18.4-4.8 1-.8 2.5-.9 2.9-2.3-.2-1.8-.7-3.5-1.6-5.1-6.6 3.9-14.6 5.2-22 5.1-2.1 7.2-10.6 17.6-17.8 20.6 1.5-2.2 1.6-6.2.7-7.2-4.6 3.6-9.7 6.7-15.4 7 1.6-2 2.7-4.6 3.1-7.3-4.3 1.9-9 2.8-13 2.7 5.2-8 1.9-19.9-1.3-32-2-7.5-.7-12.3.4-18.2-1.4-7-6.8-11.3-7.7-18.5C-2.1 102.8 15 97.9 20.7 87c3-5.5 9-11.8 14.9-11.9 5.9-.1 14 5.2 21.5 7 3.6 1.1 6.4 3.7 8.8 6.6 2.1-2.4 4.5-5 7.1-6.9-2.6-.2-5.4 1-7.2 3.3-3.5-6.3-3.8-13.5-2.2-20.3-3.4 1-7 3.4-8.8 6.9-2.3-9.9-.4-21.4 5.9-29.3-4-.2-7.8 1-11.4 2.5C52.5 35.3 65.2 18 79.6 9.2c19.2-11.8 59.2-14.3 79.5 9.9 7.7 2 16.4 6.2 17.9 14.9 1.1 1.5 2.7 2.6 4.3 3.6 1.5-.4 3.1-.5 4.5-1.2-4.1-3.1-6.2-4.1-6.2-4.1 5-3.1 13.8-3.4 13.8-3.4zm-2.3 11.3c9.3 5.6 7.7 15.5 5.1 21.4 5.8-.9 16.7-.2 19.5 4.9 1.1 1.9.1 6.2-1.4 8.2 1.3 7.1-3.8 19.2-26.8 17-9 4.2-14.5 11.8-23.6 17.1-10.7 6.2-22.5 2.5-32.4 2.5-13.6 3.1-36 1.2-45.9-12.7-8.3 12.7-5.6 28.8 1.8 37.9 10.4.7 37.4 14.4 47 10.5 1.4-11.2 12-14.8 16.3-15 2.2-13.7 18.8-25.6 34.3-24.8 24.1 1.2 47.7 20.2 60.6 43.5.7 1.3 1.5 2.8.6 4.1-21.7-33.2-58.4-48-79.4-36.3-5.5 3.6-8.9 8.9-10.4 15.7 16.2 8.9 29.6 22.3 43.3 36 4.1 3.3 9.4 3.9 14.3 4.3-2.2-4.9-6.6-10.2-12.5-14.9 10.5.1 19.1 5.7 26.8 11.7-2.6-14.4-9.5-28.2-22-37.7-2.2-1.9.9-1.6 3-.3 15 8.9 24 25.6 27.1 41.5 1.3 2.8 4 5.2 6.4 6.9-2.7.7-7-.2-9.7-1.4 2 8.3 7.9 18.6 10.9 24.7 18-1.3 38.9-18.1 45.9-39-2.7 1.7-6.1 3.1-9.2 3.3 3.2-3.5 5.6-8.2 5.8-13.3-2.5 3.2-8 7.1-11.4 7.2 3-6.3 5.5-13.9 5.5-21-12.8 4-29.2 2.6-38.2-8.5-10.9-13.8-14.6-30.6-27.4-43.4 6.2-6.9 10.2-16.1 9-26.3-.2-.7.5-1 .8-.4 4.2 7.2 1.7 18.4-1 24.4 5.6 6.2 12 12.5 12.5 20.7 1 3.9 5.9 2.4 8.6 3 2.7.6 3.1 4.4 5.8 5.3 2.7.9 4-1.5 5-2.5 4.6-6 9-9.5 15.9-11.8.3 2-.7 3.7-2 5.7 7.2-4.4 7.4-10.1 6.1-16.1-1.3-6-11.4-9.2-15.3-15.6-2.5-6.4-4.7-13-8.3-19.1-6.8-15.1-21.9-28.5-37-32.4 0 0 5.2 3.6 5.6 7.6 0 0-12.2-5.1-19.9-5.2 0 0 5.8 3.9 6.7 6.3 0 0-6.6-1.1-15.5.2 0 0 4.3 1.6 5.4 4.3.4 0-3.4-.1-6.3 1.8zm-111.4 51l-3.2-4c-3.3.9-5.7 3.3-7.8 5.9.5 3.5-.4 6.8-2 9.2 3 2.9 5.6 6.2 5.4 10.3-.3 6-4.7 11.1-8.7 14.8 2.6 1 3.1 5.6 1.6 9.3-.8-3.2-1.4-6-4.8-6.2-5.5 4-8.4 17-11.8 17.3-3.6.2-7.3-3.6-8.8-7.1-1.8.3-3.7 1-5.9 1.8-2.7 1-5.8-.9-8-3-3.3-3.7-8.5-8.4-6.9-14-1.6-1.4-3.9-3.4-4.6-5.6-.2-.6.3-1.1.9-.6 4.9 4.5 9.4-1.9 14.9.2 3.1 1.6 5.4 7 3.6 9.2-1.6-3.1-3.7-4.6-5.2-4.7-2.1-.1-3.7 1.1-5.2 2.6 1.4 3.8 5 9 7.7 9.9 2.6.9 5-.8 7.1-2 1-5.5 2.6-11.1 4.8-15.2-2.4-7-6.8-10.7-14.7-15.6 0 0-.2-1.2.9-1 5.6 2.6 14.5 3.6 18.1 11.1 3.1-2.3 7.9-5.7 5.8-9.9-2.2-4.6-7.3-8.4-16.2-12.4-.4-.2 0-1.2.7-1 7 1.7 16.8 4.5 21.5 12.4 1.8-1.8 3.5-3.6 4.3-5.9 1-4.1-1.9-7.2-6.1-9.3-4.2-2.2-17.7-7.6-21.5-7.6-3.4 0-5.7 2.9-6.8 4.8 2.1-1.6 3.2-1.8 4.4-1.6-5.1 9-18.5 17.7-23 21.5-2.8 2.4-3.7 5.4-3.6 9.5.2 9 7.7 13.6 6.7 21.8-2.5 17.1 5.8 26.9 6 40.6 3.8-.7 6.8-1.7 9-3.9.7 2.2 1.1 5.4.5 7.3 3.9-1.7 9.1-7 10.5-9.9 1.3 1.8 1.8 4.6 1.4 6.9 3.2-2.7 7.1-9.8 7.2-14.7 7.7 1.3 16.2-.3 22.7-5.1-3.4-12.1 5.4-19.9 10.7-20.4-9.4-10.1-10.3-36.8-1.6-45.7zM68.3 77.4c4.5-2.9 9.3-3.3 11.8-2.5-1.2 4.1 1.8 8.9 5.1 11.4 1.9-.6 3.6-6.4 6.3-9.4 2.8-3 8.6-6.3 13.4-6.6-3.9-3.9-6-6.9-6.7-13.6-.7-7 3.9-13.1 8.9-15-3.9-1-10.8-1.3-14.5.4.9-1.3 3.3-2.8 5.4-3.8 14.5-5.7 26.2 9.4 38.4 17.3 3.9 2.5 9.6 1.8 13.3-.2 2.5-1.4 4.1-4 3.3-8.1-1.3-6.4-8.8-14-16-16.9 5.2 1.2 10.6 2.5 15.7 1.3-.1 4 2.6 17.4 7.1 21.5 2.9-4.9-.3-11.9 1.7-19.7.8-3 2.9-8.7 10.4-4.5-3-2.8-12.2-6.6-16.4-6.9-1.8-3.3-5-5.7-8.1-8-10.5-7.2-25.7-9.6-39.6-8.6-21 1.4-39.4 20.1-47.1 32 3.3-1.1 8.1-2.2 11.7-1.9-5.7 5.8-11.5 14.7-12.4 23.8 3.7-2.2 8.4-4.7 12.6-4.4-4.7 5.7-5.7 14.9-4.3 22.4z" fill="#004275" fill-rule="nonzero"/><path d="M275.9 224.3c-1.5 1.4-3.2 2.2-5.4 3.4l-1.7-7.9c2.1-1.6 4.5-5 6.5-8.7 1.4-.5 3.4.7 4.9 1.5.1-3-3.8-4.4-3.8-4.4 1.1-2.4 1.3-6.7 1.5-10.4 5.6 1.7 27.5 31.5 58 46.2 2.4 1.2 6.4 3.4 4 5.1-4.3 2.7-11.2 4.5-11.3 10.8-4-2.5-17.7-16.9-20.6-20.2-1-1.2-1.7-.3-.8 1.1.9 1.4 10.3 15.5 15.3 23.1-3 .7-6.4-2-8.9.2-2.2 1.6-2.9 5.8-5.5 5.7-2.8-.1-15-30.3-20-44.7 1.6-2.3 2.6-7.1 0-11.5-.5 3.3-1.1 5.3-2.8 6.6-1.2-1.4-3.7-2.8-5.5-3.2 1.6 2.1 2.7 5 2.6 7.3-1.5 2.3-4.5 5.9-5.6 8.6.1-3.4-.2-5.9-.9-8.6z" fill="#F79239"/><path d="M276.3 240.7c-1.7 7.3-5.8 14.1-12.7 18.4-1.8-8.9-6.3-23.5-10.3-33.3 3.4-.4 6.8-1.7 10-3.2 0 0 2.7 11.2 2.3 13.6l4.9-2.6s.3 8.6-.8 10.2c3-.5 6.6-3.1 6.6-3.1z" fill="#EEE1C6"/><path d="M267.5 213.7c.1-1.5-.1-3.2-.7-4.8-3.3 5.1-9.5 10-15.5 10.2-1-1.9-1.8-3.8-2.4-5.8 6.6-2.3 17.2-7.7 22.8-13.2.7 6.3-4.2 13.6-4.2 13.6z" fill="#FFF"/><path d="M257.5 263.7c-12.8-28.6-50.2-70.2-73.4-92.6-13.5-13-33.6-30.7-42.8-23.8 7.6-16.2 29.3 3.5 38.9 12.3 22.1 19.7 50 51.2 61.5 68.4 6.5 9.8 18.4 28.7 15.8 35.7z" fill="#F79239"/><path d="M251.3 267.5c-33.2-21.7-84.5-37.6-108.3-44.6-23.8-7-49-14.8-72.8-22.7-4.3-1.7-10.1-2.7-11.7-6.9-1.7-4.1 1.8-5 6-5.9 5.6-1.1 12.8-3.6 16.5-6.9 4.7-4.4.2-13-.4-16.2-.6-3.8 2.1-5.5 4.1-6.4 8.9-4 28.2 3.4 34.3 4.6 6.8 1.4 11.7 1.2 16.5-1.9 3.2-2.4 5.2-7.6 10-7.4 6.7 0 12.3 5.5 18.1 9.9 30.6 23.2 86 89.3 88.9 101.7.5 1.4-.6 2.1-1.2 2.7z" fill="#910028"/><path d="M222.7 188.5c4.3 3.9 9.3 7.3 13.1 11.8 5.1 9.1 9.5 18.4 12.5 28.2-6.1-7.9-11.9-17.3-18.9-25.3 1.7.2 4-.3 5.3-1-4-3.7-9.1-5.7-13.8-8.2-3.6-4.9-7.7-9.1-11.7-13.9 5.2 1.6 10.3 2.3 15.3 1.9-.8-3.7-4.6-8.9-4.6-8.9 1.4.2 3.1 1.6 4.7 2.4 2.1 4.3 3.4 8.8 5.1 13.2-2.2-.4-4.8-.8-7-.2z" fill="#F79239"/><path d="M200.6 247.8c13.1 4.6 25.1 11.4 37.4 17.8-11.1.1-29.9-9.6-37.4-17.8z" fill="#EEE1C6"/><path d="M154.5 102.2c10-2 16.2-9.9 24.4-16.8 12.1-10.2 26.7-9.6 29.2-3.8-4.2 2.9-9.2 4.2-14.7 3.8 1.7-1.5 3.9-2.4 3.2-4.1-8.8 1-13.5 5.8-17.8 9.2-4.3 3.4-18.7 21-32.4 16.3 0 0-15-4.3-25.7-1.8 0 0 1.2 1.1 2.7 2.3-12.8 1.6-36-6.7-31.3-18.7 3.8-9.6 14.2-13.9 34.8-15.3.8-1.5-1.3-3.2-.2-5.1 7.2-4.2 12.4-3.1 23.8-4.4 10.8-1.2 32.4-3.7 32.6-21.2 8 .8 14 13.3 5.6 20.6-12.1 4-23.4 13.9-31.1 24.5-.1.4 0 .8.3 1 14.8-13.2 29.1-23 43.5-22 9.6.7 9.1 5.1 7.4 7.4-.7 0-1.3-.4-2-.3-.1-4.9-10.3-4.3-15.1-2.4-14.6 5.9-24.7 22.8-35.7 25.2-11 2.3-18.7-5.8-24.5-9.5-5.7-3.7-15.1-8.4-23.9-6.3-6.4 1.5-12.7 7.1-12.6 13.5l4-2.5c8.4 6.5 18.1 11.7 30.2 10.2 1.7.1 7.7-.7 12.2-.9 4.6-.2 8.1 2.1 13.1 1.1zM77.8 154.5c-1-2.3-1-5.5.8-7.7 5.2-6.3 19.2-2 27.2 1s18.4 6.9 28.4 5.4c-2.2 5.2-14 3.3-23.5.8-9.4-2.4-23.9-7-32.9.5z" fill="#F79239"/><path d="M124.1 90l9.2 6c-2.6 1.2-9 1.5-12.7.6M123.8 62.5c-2.5 2-4.4 3.2-4.4 3.2-2.2 1-4 2.4-8.6 3-6.4-2.3-8.9-9.3-8-14.5.9-5.1 4.8-9.3 9.4-9.4 6.8 2.1 12.3 7.5 17.2 13.1-2.1 1.1-3.2 2.9-5.6 4.6z" fill="#FFF"/><path d="M51.5 188.7c.7-6.3 10.3-12.5 21.6-10.2-8.4 2.4-17.1 4.9-21.6 10.2z" fill="#F79239"/><path d="M120.7 96.6c-7.6-1.1-14.1-4.8-18.2-9.7 2.3-1.6 5.2-1.6 8-1.3 0 0-.3 5.5-.1 5.9 0 0 2.4-5.2 3.3-5.4 1.3-.1 3 .3 4.3 1 0 0-2.4 6.7-2.4 7.2 0 0 4.7-5.9 5.6-5.8l3.2 1.7" fill="#FFF"/><path d="M124.6 60.9c.2-.6.2-1.2.2-1.8 0-3.9-3.1-7.1-6.9-7.1-3.8 0-6.9 3.2-6.9 7.1 0 3.9 3.1 7.1 6.9 7.1.3 0 .2.1.5 0 0 0 3-1.2 4.3-2.3 1-.8 1.9-3 1.9-3z" fill="#910028"/><path d="M117.9 63c2.2 0 3.9-1.8 3.9-3.9 0-2.2-1.8-3.9-3.9-3.9-2.2 0-3.9 1.8-3.9 3.9-.1 2.2 1.7 3.9 3.9 3.9z" fill="#004275"/><path fill="#FFF" d="M110.3 57.3l3.1-4.2 3.8 5.2zM166.3 34.1c-1.2 1.7-1.9 5.3-1.8 8.4.6 1.7.9 5 .2 9-.3 2.6-.9 4.3-.9 4.3s2.5-1.2 5.8-1.6c1.3-.1 2.9-1.2 3.9-1.6 2.2-.7 4.2-2.4 4.7-6 .6-4.1-5.1-11.5-11.9-12.5z"/><path d="M169.6 54.2s2-.3 3-.8c1.8-.9 2.4-1.4 2.4-1.4 1.1-1.2 1.5-2.6 1.6-4.3.2-3.8-2.8-7-6.7-7.2-2.2-.1-4.5.9-5.5 2.3.7 4.1.3 8.8.3 8.8 1.2 1.6 3 2.3 3 2.3.6 0 1.3.2 1.9.3" fill="#910028"/><path d="M165.9 47.1c-.1 2.2 1.6 4 3.7 4.1 2.2.1 4-1.6 4.1-3.7.1-2.2-1.6-4-3.7-4.1-2.1-.2-4 1.5-4.1 3.7z" fill="#004275"/><path fill="#FFF" d="M172.7 39.2l4 3.3-5.3 3.5z"/><path d="M46.4 139c-1.9-3.1-.9-8.2-.1-11.7 2.5-8.6 14.2-18.9 18-20.4 3.6 6.7-2.2 14.8-5.6 17.9-3.4 3.1-9 8-12.3 14.2z" fill="#EEE1C6"/><path fill="#004275" d="M128.7 88.9l-5.9 6.4 3-7.7z"/></g></svg>